MutatorSansBoldWide.ufo
<glyph name="comma" format="2">
  <advance width="310"/>
  <unicode hex="002C"/>
  <outline>
    <contour>
      <point x="250" y="0" type="line"/>
      <point x="250" y="300" type="line"/>
      <point x="60" y="300" type="line"/>
      <point x="60" y="0" type="line"/>
      <point x="139" y="-16" type="line"/>
      <point x="131" y="12" type="line"/>
      <point x="109" y="-143" type="line"/>
      <point x="181" y="-145" type="line"/>
    </contour>
  </outline>
</glyph>
<glyph name="period" format="2">
  <advance width="310"/>
  <unicode hex="002E"/>
  <outline>
    <contour>
      <point x="60" y="0" type="line"/>
      <point x="250" y="0" type="line"/>
      <point x="250" y="300" type="line"/>
      <point x="60" y="300" type="line"/>
    </contour>
  </outline>
</glyph>
<glyph name="A" format="2">
  <advance width="1290"/>
  <unicode hex="0041"/>
  <outline>
    <contour>
      <point x="20" y="0" type="line"/>
      <point x="350" y="0" type="line"/>
      <point x="640" y="800" type="line"/>
      <point x="360" y="800" type="line"/>
    </contour>
    <contour>
      <point x="210" y="120" type="line"/>
      <point x="940" y="120" type="line"/>
      <point x="940" y="340" type="line"/>
      <point x="210" y="340" type="line"/>
    </contour>
    <contour>
      <point x="800" y="0" type="line"/>
      <point x="1270" y="0" type="line"/>
      <point x="930" y="800" type="line"/>
      <point x="480" y="800" type="line"/>
    </contour>
    <contour>
      <point x="410" y="540" type="line"/>
      <point x="830" y="540" type="line"/>
      <point x="830" y="800" type="line"/>
      <point x="410" y="800" type="line"/>
    </contour>
  </outline>
</glyph>
<glyph name="B" format="2">
  <advance width="1270"/>
  <unicode hex="0042"/>
  <outline>
    <contour>
      <point x="60" y="0" type="line"/>
      <point x="480" y="0" type="line"/>
      <point x="480" y="801" type="line"/>
      <point x="60" y="801" type="line"/>
    </contour>
    <contour>
      <point x="450" y="337" type="line"/>
      <point x="732.0" y="337.0" type="line" smooth="yes"/>
      <point x="774.0" y="337.0"/>
      <point x="807" y="330"/>
      <point x="807" y="286" type="curve" smooth="yes"/>
      <point x="807" y="248"/>
      <point x="774.0" y="238.0"/>
      <point x="732.0" y="238.0" type="curve" smooth="yes"/>
      <point x="450" y="238" type="line"/>
      <point x="450" y="0" type="line"/>
      <point x="906" y="0" type="line" smooth="yes"/>
      <point x="1161.0" y="0.0"/>
      <point x="1230" y="94"/>
      <point x="1230" y="230" type="curve" smooth="yes"/>
      <point x="1230" y="356"/>
      <point x="1155" y="417"/>
      <point x="1061" y="434" type="curve"/>
      <point x="1031" y="377" type="line"/>
      <point x="1108" y="392"/>
      <point x="1200" y="444"/>
      <point x="1200" y="563" type="curve" smooth="yes"/>
      <point x="1200" y="711"/>
      <point x="1111.0" y="800.0"/>
      <point x="846" y="800.0" type="curve" smooth="yes"/>
      <point x="450" y="800" type="line"/>
      <point x="450" y="574" type="line"/>
      <point x="693.0" y="574.0" type="line" smooth="yes"/>
      <point x="744.0" y="574.0"/>
      <point x="777" y="565"/>
      <point x="777" y="528" type="curve" smooth="yes"/>
      <point x="777" y="476"/>
      <point x="744.0" y="480.0"/>
      <point x="693.0" y="480.0" type="curve" smooth="yes"/>
      <point x="450" y="480" type="line"/>
    </contour>
  </outline>
</glyph>
<glyph name="C" format="2">
  <advance width="1374"/>
  <unicode hex="0043"/>
  <outline>
    <contour>
      <point x="906" y="362" type="line"/>
      <point x="890" y="286"/>
      <point x="829" y="254"/>
      <point x="738" y="254" type="curve" smooth="yes"/>
      <point x="644" y="254" type="line" smooth="yes"/>
      <point x="538" y="254"/>
      <point x="472" y="298"/>
      <point x="472" y="403" type="curve" smooth="yes"/>
      <point x="472" y="504"/>
      <point x="538" y="546"/>
      <point x="644" y="546" type="curve" smooth="yes"/>
      <point x="738" y="546" type="line" smooth="yes"/>
      <point x="828" y="546"/>
      <point x="889" y="516"/>
      <point x="906" y="445" type="curve"/>
      <point x="1333" y="491" type="line"/>
      <point x="1291" y="707"/>
      <point x="1090" y="810"/>
      <point x="790" y="810" type="curve" smooth="yes"/>
      <point x="590" y="810" type="line" smooth="yes"/>
      <point x="252" y="810"/>
      <point x="40" y="679"/>
      <point x="40" y="403" type="curve" smooth="yes"/>
      <point x="40" y="124"/>
      <point x="252" y="-10"/>
      <point x="590" y="-10" type="curve" smooth="yes"/>
      <point x="790" y="-10" type="line" smooth="yes"/>
      <point x="1092" y="-10"/>
      <point x="1294" y="97"/>
      <point x="1334" y="319" type="curve"/>
    </contour>
  </outline>
</glyph>
<glyph name="D" format="2">
  <advance width="1316"/>
  <unicode hex="0044"/>
  <outline>
    <contour>
      <point x="60" y="0" type="line"/>
      <point x="480" y="0" type="line"/>
      <point x="480" y="800" type="line"/>
      <point x="60" y="800" type="line"/>
    </contour>
    <contour>
      <point x="430" y="546" type="line"/>
      <point x="653" y="546" type="line" smooth="yes"/>
      <point x="759.0" y="546.0"/>
      <point x="825" y="504"/>
      <point x="825" y="403" type="curve" smooth="yes"/>
      <point x="825" y="298"/>
      <point x="759.0" y="254.0"/>
      <point x="653" y="254" type="curve" smooth="yes"/>
      <point x="430" y="254" type="line"/>
      <point x="430" y="0" type="line"/>
      <point x="705" y="0" type="line" smooth="yes"/>
      <point x="1043.0" y="0.0"/>
      <point x="1256" y="124"/>
      <point x="1256" y="403" type="curve" smooth="yes"/>
      <point x="1256" y="679"/>
      <point x="1043.0" y="800.0"/>
      <point x="705" y="800" type="curve" smooth="yes"/>
      <point x="430" y="800" type="line"/>
    </contour>
  </outline>
</glyph>
<glyph name="E" format="2">
  <advance width="1120"/>
  <unicode hex="0045"/>
  <anchor x="582" y="841" name="top"/>
  <outline>
    <contour>
      <point x="60" y="0" type="line"/>
      <point x="480" y="0" type="line"/>
      <point x="480" y="800" type="line"/>
      <point x="60" y="800" type="line"/>
    </contour>
    <contour>
      <point x="150" y="530" type="line"/>
      <point x="1075" y="530" type="line"/>
      <point x="1075" y="800" type="line"/>
      <point x="150" y="800" type="line"/>
    </contour>
    <contour>
      <point x="150" y="0" type="line"/>
      <point x="1075" y="0" type="line"/>
      <point x="1075" y="270" type="line"/>
      <point x="150" y="270" type="line"/>
    </contour>
    <contour>
      <point x="150" y="315" type="line"/>
      <point x="986" y="315" type="line"/>
      <point x="986" y="485" type="line"/>
      <point x="150" y="485" type="line"/>
    </contour>
  </outline>
</glyph>
<glyph name="F" format="2">
  <advance width="1090"/>
  <unicode hex="0046"/>
  <outline>
    <contour>
      <point x="60" y="0" type="line"/>
      <point x="480" y="0" type="line"/>
      <point x="480" y="800" type="line"/>
      <point x="60" y="800" type="line"/>
    </contour>
    <contour>
      <point x="150" y="530" type="line"/>
      <point x="1075" y="530" type="line"/>
      <point x="1075" y="800" type="line"/>
      <point x="150" y="800" type="line"/>
    </contour>
    <contour>
      <point x="150" y="235" type="line"/>
      <point x="961" y="235" type="line"/>
      <point x="961" y="465" type="line"/>
      <point x="150" y="465" type="line"/>
    </contour>
  </outline>
</glyph>
<glyph name="G" format="2">
  <advance width="1410"/>
  <unicode hex="0047"/>
  <outline>
    <contour>
      <point x="640" y="315" type="line"/>
      <point x="907" y="315" type="line"/>
      <point x="907" y="216" type="line"/>
      <point x="1107" y="0" type="line"/>
      <point x="1350" y="0" type="line"/>
      <point x="1350" y="420" type="line"/>
      <point x="640" y="420" type="line"/>
    </contour>
    <contour>
      <point x="906" y="372" type="line"/>
      <point x="890" y="296"/>
      <point x="829" y="254"/>
      <point x="738" y="254" type="curve" smooth="yes"/>
      <point x="644" y="254" type="line" smooth="yes"/>
      <point x="538" y="254"/>
      <point x="472" y="298"/>
      <point x="472" y="403" type="curve" smooth="yes"/>
      <point x="472" y="504"/>
      <point x="538" y="546"/>
      <point x="644" y="546" type="curve" smooth="yes"/>
      <point x="738" y="546" type="line" smooth="yes"/>
      <point x="828" y="546"/>
      <point x="889" y="516"/>
      <point x="906" y="445" type="curve"/>
      <point x="1333" y="491" type="line"/>
      <point x="1291" y="707"/>
      <point x="1090" y="810"/>
      <point x="790" y="810" type="curve" smooth="yes"/>
      <point x="590" y="810" type="line" smooth="yes"/>
      <point x="252" y="810"/>
      <point x="40" y="679"/>
      <point x="40" y="403" type="curve" smooth="yes"/>
      <point x="40" y="124"/>
      <point x="252" y="-10"/>
      <point x="590" y="-10" type="curve" smooth="yes"/>
      <point x="610" y="-10" type="line" smooth="yes"/>
      <point x="912" y="-10"/>
      <point x="1114" y="107"/>
      <point x="1154" y="329" type="curve"/>
    </contour>
  </outline>
</glyph>
<glyph name="H" format="2">
  <advance width="1360"/>
  <unicode hex="0048"/>
  <outline>
    <contour>
      <point x="60" y="0" type="line"/>
      <point x="480" y="0" type="line"/>
      <point x="480" y="800" type="line"/>
      <point x="60" y="800" type="line"/>
    </contour>
    <contour>
      <point x="230" y="270" type="line"/>
      <point x="1130" y="270" type="line"/>
      <point x="1130" y="530" type="line"/>
      <point x="230" y="530" type="line"/>
    </contour>
    <contour>
      <point x="880" y="0" type="line"/>
      <point x="1300" y="0" type="line"/>
      <point x="1300" y="800" type="line"/>
      <point x="880" y="800" type="line"/>
    </contour>
  </outline>
</glyph>
<glyph name="I" format="2">
  <advance width="1020"/>
  <unicode hex="0049"/>
  <outline>
    <contour>
      <point x="300" y="0" type="line"/>
      <point x="720" y="0" type="line"/>
      <point x="720" y="800" type="line"/>
      <point x="300" y="800" type="line"/>
    </contour>
    <contour>
      <point x="60" y="550" type="line"/>
      <point x="960" y="550" type="line"/>
      <point x="960" y="800" type="line"/>
      <point x="60" y="800" type="line"/>
    </contour>
    <contour>
      <point x="60" y="0" type="line"/>
      <point x="960" y="0" type="line"/>
      <point x="960" y="250" type="line"/>
      <point x="60" y="250" type="line"/>
    </contour>
  </outline>
</glyph>
<glyph name="J" format="2">
  <advance width="1117"/>
  <unicode hex="004A"/>
  <outline>
    <contour>
      <point x="513" y="-10" type="curve" smooth="yes"/>
      <point x="829" y="-10"/>
      <point x="1027" y="127"/>
      <point x="1027" y="413" type="curve" smooth="yes"/>
      <point x="1027" y="800" type="line"/>
      <point x="596" y="800" type="line"/>
      <point x="596" y="393" type="line" smooth="yes"/>
      <point x="596" y="316"/>
      <point x="565" y="284"/>
      <point x="514" y="284" type="curve" smooth="yes"/>
      <point x="463" y="284"/>
      <point x="432" y="310"/>
      <point x="432" y="389" type="curve" smooth="yes"/>
      <point x="432" y="458" type="line"/>
      <point x="30" y="458" type="line"/>
      <point x="30" y="377" type="line" smooth="yes"/>
      <point x="30" y="104"/>
      <point x="215" y="-10"/>
    </contour>
  </outline>
</glyph>
<glyph name="K" format="2">
  <advance width="1286"/>
  <unicode hex="004B"/>
  <outline>
    <contour>
      <point x="60" y="0" type="line"/>
      <point x="480" y="0" type="line"/>
      <point x="480" y="800" type="line"/>
      <point x="60" y="800" type="line"/>
    </contour>
    <contour>
      <point x="324" y="312" type="line"/>
      <point x="488" y="312" type="line"/>
      <point x="754" y="0" type="line"/>
      <point x="1266" y="0" type="line"/>
      <point x="797" y="533" type="line"/>
      <point x="488" y="452" type="line"/>
      <point x="324" y="452" type="line"/>
    </contour>
    <contour>
      <point x="460" y="426" type="line"/>
      <point x="661" y="288" type="line"/>
      <point x="1270" y="800" type="line"/>
      <point x="798" y="800" type="line"/>
    </contour>
  </outline>
</glyph>
<glyph name="L" format="2">
  <advance width="1070"/>
  <unicode hex="004C"/>
  <outline>
    <contour>
      <point x="60" y="0" type="line"/>
      <point x="480" y="0" type="line"/>
      <point x="480" y="800" type="line"/>
      <point x="60" y="800" type="line"/>
    </contour>
    <contour>
      <point x="150" y="0" type="line"/>
      <point x="1050" y="0" type="line"/>
      <point x="1050" y="280" type="line"/>
      <point x="150" y="280" type="line"/>
    </contour>
  </outline>
</glyph>
<glyph name="M" format="2">
  <advance width="1298"/>
  <unicode hex="004D"/>
  <outline>
    <contour>
      <point x="60" y="0" type="line"/>
      <point x="380" y="0" type="line"/>
      <point x="380" y="800" type="line"/>
      <point x="60" y="800" type="line"/>
    </contour>
    <contour>
      <point x="1238" y="0" type="line"/>
      <point x="1238" y="800" type="line"/>
      <point x="918" y="800" type="line"/>
      <point x="918" y="0" type="line"/>
    </contour>
    <contour>
      <point x="1034" y="404" type="line"/>
      <point x="918" y="800" type="line"/>
      <point x="624" y="547" type="line"/>
      <point x="674" y="547" type="line"/>
      <point x="380" y="800" type="line"/>
      <point x="264" y="404" type="line"/>
      <point x="582" y="135" type="line"/>
      <point x="716" y="135" type="line"/>
    </contour>
  </outline>
</glyph>
<glyph name="N" format="2">
  <advance width="1305"/>
  <unicode hex="004E"/>
  <outline>
    <contour>
      <point x="60" y="0" type="line"/>
      <point x="380" y="0" type="line"/>
      <point x="380" y="800" type="line"/>
      <point x="60" y="800" type="line"/>
    </contour>
    <contour>
      <point x="264" y="454" type="line"/>
      <point x="924" y="0" type="line"/>
      <point x="1040" y="346" type="line"/>
      <point x="380" y="800" type="line"/>
    </contour>
    <contour>
      <point x="925" y="0" type="line"/>
      <point x="1245" y="0" type="line"/>
      <point x="1245" y="800" type="line"/>
      <point x="925" y="800" type="line"/>
    </contour>
  </outline>
</glyph>
<glyph name="O" format="2">
  <advance width="1381"/>
  <unicode hex="004F"/>
  <outline>
    <contour>
      <point x="590" y="-10" type="curve" smooth="yes"/>
      <point x="790" y="-10" type="line" smooth="yes"/>
      <point x="1128" y="-10"/>
      <point x="1341" y="124"/>
      <point x="1341" y="403" type="curve" smooth="yes"/>
      <point x="1341" y="679"/>
      <point x="1128" y="810"/>
      <point x="790" y="810" type="curve" smooth="yes"/>
      <point x="590" y="810" type="line" smooth="yes"/>
      <point x="252" y="810"/>
      <point x="40" y="679"/>
      <point x="40" y="403" type="curve" smooth="yes"/>
      <point x="40" y="124"/>
      <point x="252" y="-10"/>
    </contour>
    <contour>
      <point x="644" y="254" type="line" smooth="yes"/>
      <point x="538" y="254"/>
      <point x="472" y="298"/>
      <point x="472" y="403" type="curve" smooth="yes"/>
      <point x="472" y="504"/>
      <point x="538" y="546"/>
      <point x="644" y="546" type="curve" smooth="yes"/>
      <point x="738" y="546" type="line" smooth="yes"/>
      <point x="844" y="546"/>
      <point x="910" y="504"/>
      <point x="910" y="403" type="curve" smooth="yes"/>
      <point x="910" y="298"/>
      <point x="844" y="254"/>
      <point x="738" y="254" type="curve" smooth="yes"/>
    </contour>
  </outline>
</glyph>
<glyph name="P" format="2">
  <advance width="1218"/>
  <unicode hex="0050"/>
  <outline>
    <contour>
      <point x="60" y="0" type="line"/>
      <point x="480" y="0" type="line"/>
      <point x="480" y="800" type="line"/>
      <point x="60" y="800" type="line"/>
    </contour>
    <contour>
      <point x="310" y="513" type="line"/>
      <point x="727" y="513" type="line" smooth="yes"/>
      <point x="790" y="513"/>
      <point x="818" y="501"/>
      <point x="818" y="455" type="curve" smooth="yes"/>
      <point x="818" y="402"/>
      <point x="790" y="394"/>
      <point x="727" y="394" type="curve" smooth="yes"/>
      <point x="310" y="394" type="line"/>
      <point x="310" y="106" type="line"/>
      <point x="693" y="106" type="line" smooth="yes"/>
      <point x="1070" y="106"/>
      <point x="1198" y="220"/>
      <point x="1198" y="455" type="curve" smooth="yes"/>
      <point x="1198" y="687"/>
      <point x="1070" y="800"/>
      <point x="695" y="800" type="curve" smooth="yes"/>
      <point x="310" y="800" type="line"/>
    </contour>
  </outline>
</glyph>
<glyph name="Q" format="2">
  <advance width="1381"/>
  <unicode hex="0051"/>
  <outline>
    <contour>
      <point x="560" y="-130" type="line"/>
      <point x="980" y="-130" type="line"/>
      <point x="840" y="170" type="line"/>
      <point x="420" y="170" type="line"/>
    </contour>
    <component base="O"/>
  </outline>
</glyph>
<glyph name="R" format="2">
  <advance width="1277"/>
  <unicode hex="0052"/>
  <outline>
    <contour>
      <point x="800" y="0" type="line"/>
      <point x="1231" y="0" type="line"/>
      <point x="1180" y="83" type="line" smooth="yes"/>
      <point x="1137" y="153"/>
      <point x="1083" y="210"/>
      <point x="985" y="210" type="curve"/>
      <point x="690" y="210" type="line"/>
    </contour>
    <contour>
      <point x="60" y="0" type="line"/>
      <point x="480" y="0" type="line"/>
      <point x="480" y="800" type="line"/>
      <point x="60" y="800" type="line"/>
    </contour>
    <contour>
      <point x="354" y="513" type="line"/>
      <point x="771" y="513" type="line" smooth="yes"/>
      <point x="834" y="513"/>
      <point x="862" y="501"/>
      <point x="862" y="455" type="curve" smooth="yes"/>
      <point x="862" y="402"/>
      <point x="834" y="394"/>
      <point x="771" y="394" type="curve" smooth="yes"/>
      <point x="354" y="394" type="line"/>
      <point x="354" y="126" type="line"/>
      <point x="737" y="126" type="line" smooth="yes"/>
      <point x="1114.0" y="126"/>
      <point x="1242.0" y="230.8523676880223"/>
      <point x="1242" y="445" type="curve" smooth="yes"/>
      <point x="1242.0" y="683.9206349206349"/>
      <point x="1114.0" y="800"/>
      <point x="739" y="800" type="curve" smooth="yes"/>
      <point x="354" y="800" type="line"/>
    </contour>
  </outline>
</glyph>
<glyph name="S" format="2">
  <advance width="1210"/>
  <unicode hex="0053"/>
  <outline>
    <contour>
      <point x="1190" y="253" type="curve" smooth="yes"/>
      <point x="1190" y="462"/>
      <point x="1065" y="523"/>
      <point x="724" y="531" type="curve" smooth="yes"/>
      <point x="519" y="536" type="line" smooth="yes"/>
      <point x="383" y="539"/>
      <point x="372" y="542"/>
      <point x="372" y="552" type="curve" smooth="yes"/>
      <point x="372" y="563"/>
      <point x="396" y="567"/>
      <point x="485" y="567" type="curve" smooth="yes"/>
      <point x="689" y="567" type="line" smooth="yes"/>
      <point x="838" y="567"/>
      <point x="985" y="558"/>
      <point x="1094" y="548" type="curve"/>
      <point x="1129" y="780" type="line"/>
      <point x="1023" y="793"/>
      <point x="841" y="810"/>
      <point x="744" y="810" type="curve" smooth="yes"/>
      <point x="614" y="810" type="line" smooth="yes"/>
      <point x="182" y="810"/>
      <point x="20" y="729"/>
      <point x="20" y="529" type="curve" smooth="yes"/>
      <point x="20" y="343"/>
      <point x="168" y="277"/>
      <point x="488" y="269" type="curve" smooth="yes"/>
      <point x="680" y="264" type="line" smooth="yes"/>
      <point x="802" y="261"/>
      <point x="825" y="259"/>
      <point x="825" y="246" type="curve" smooth="yes"/>
      <point x="825" y="238"/>
      <point x="800" y="234"/>
      <point x="711" y="234" type="curve" smooth="yes"/>
      <point x="519" y="234" type="line" smooth="yes"/>
      <point x="346" y="234"/>
      <point x="185" y="242"/>
      <point x="61" y="255" type="curve"/>
      <point x="26" y="20" type="line"/>
      <point x="152" y="5"/>
      <point x="349" y="-10"/>
      <point x="466" y="-10" type="curve" smooth="yes"/>
      <point x="613" y="-10" type="line" smooth="yes"/>
      <point x="1059" y="-10"/>
      <point x="1190" y="92"/>
    </contour>
  </outline>
</glyph>
<glyph name="T" format="2">
  <advance width="1260"/>
  <unicode hex="0054"/>
  <outline>
    <contour>
      <point x="420" y="0" type="line"/>
      <point x="840" y="0" type="line"/>
      <point x="840" y="800" type="line"/>
      <point x="420" y="800" type="line"/>
    </contour>
    <contour>
      <point x="20" y="490" type="line"/>
      <point x="1240" y="490" type="line"/>
      <point x="1240" y="800" type="line"/>
      <point x="20" y="800" type="line"/>
    </contour>
  </outline>
</glyph>
<glyph name="U" format="2">
  <advance width="1327"/>
  <unicode hex="0055"/>
  <outline>
    <contour>
      <point x="663" y="-10" type="curve" smooth="yes"/>
      <point x="1015.5728476821191" y="-10.0"/>
      <point x="1237" y="134.0"/>
      <point x="1237" y="433" type="curve" smooth="yes"/>
      <point x="1237" y="800" type="line"/>
      <point x="806" y="800" type="line"/>
      <point x="806" y="433" type="line" smooth="yes"/>
      <point x="806" y="328.1173184357542"/>
      <point x="751.5116279069767" y="284.0"/>
      <point x="664" y="284" type="curve" smooth="yes"/>
      <point x="576.4883720930233" y="284.0"/>
      <point x="522" y="328.1173184357542"/>
      <point x="522" y="433" type="curve" smooth="yes"/>
      <point x="522" y="800" type="line"/>
      <point x="90" y="800" type="line"/>
      <point x="90" y="433" type="line" smooth="yes"/>
      <point x="90" y="134.0"/>
      <point x="310.4577114427861" y="-10.0"/>
    </contour>
  </outline>
</glyph>
<glyph name="V" format="2">
  <advance width="1320"/>
  <unicode hex="0056"/>
  <outline>
    <contour>
      <point x="1300" y="800" type="line"/>
      <point x="970" y="800" type="line"/>
      <point x="640" y="0" type="line"/>
      <point x="920" y="0" type="line"/>
    </contour>
    <contour>
      <point x="490" y="800" type="line"/>
      <point x="20" y="800" type="line"/>
      <point x="390" y="0" type="line"/>
      <point x="840" y="0" type="line"/>
    </contour>
    <contour>
      <point x="890" y="260" type="line"/>
      <point x="470" y="260" type="line"/>
      <point x="470" y="0" type="line"/>
      <point x="890" y="0" type="line"/>
    </contour>
  </outline>
</glyph>
<glyph name="W" format="2">
  <advance width="1369"/>
  <unicode hex="0057"/>
  <outline>
    <contour>
      <point x="1349" y="800" type="line"/>
      <point x="971" y="800" type="line"/>
      <point x="897" y="270" type="line"/>
      <point x="921" y="270" type="line"/>
      <point x="845" y="800" type="line"/>
      <point x="570" y="800" type="line"/>
      <point x="502" y="270" type="line"/>
      <point x="526" y="270" type="line"/>
      <point x="453" y="800" type="line"/>
      <point x="20" y="800" type="line"/>
      <point x="176" y="0" type="line"/>
      <point x="618" y="0" type="line"/>
      <point x="688" y="469" type="line"/>
      <point x="624" y="469" type="line"/>
      <point x="711" y="0" type="line"/>
      <point x="1198" y="0" type="line"/>
    </contour>
  </outline>
</glyph>
<glyph name="X" format="2">
  <advance width="1280"/>
  <unicode hex="0058"/>
  <outline>
    <contour>
      <point x="770" y="0" type="line"/>
      <point x="1260" y="0" type="line"/>
      <point x="809" y="478" type="line"/>
      <point x="510" y="800" type="line"/>
      <point x="20" y="800" type="line"/>
      <point x="449" y="374" type="line"/>
    </contour>
    <contour>
      <point x="20" y="0" type="line"/>
      <point x="470" y="0" type="line"/>
      <point x="673" y="321" type="line"/>
      <point x="799" y="321" type="line"/>
      <point x="1260" y="800" type="line"/>
      <point x="810" y="800" type="line"/>
      <point x="587" y="480" type="line"/>
      <point x="452" y="480" type="line"/>
    </contour>
  </outline>
</glyph>
<glyph name="Y" format="2">
  <advance width="1210"/>
  <unicode hex="0059"/>
  <outline>
    <contour>
      <point x="1190" y="800" type="line"/>
      <point x="840" y="800" type="line"/>
      <point x="535" y="210" type="line"/>
      <point x="815" y="210" type="line"/>
    </contour>
    <contour>
      <point x="450" y="800" type="line"/>
      <point x="20" y="800" type="line"/>
      <point x="395" y="210" type="line"/>
      <point x="785" y="210" type="line"/>
    </contour>
    <contour>
      <point x="815" y="380" type="line"/>
      <point x="395" y="380" type="line"/>
      <point x="395" y="0" type="line"/>
      <point x="815" y="0" type="line"/>
    </contour>
  </outline>
</glyph>
<glyph name="Z" format="2">
  <advance width="1280"/>
  <unicode hex="005A"/>
  <outline>
    <contour>
      <point x="60" y="280" type="line"/>
      <point x="580" y="180" type="line"/>
      <point x="1220" y="520" type="line"/>
      <point x="700" y="620" type="line"/>
    </contour>
    <contour>
      <point x="60" y="520" type="line"/>
      <point x="1220" y="520" type="line"/>
      <point x="1220" y="800" type="line"/>
      <point x="60" y="800" type="line"/>
    </contour>
    <contour>
      <point x="60" y="0" type="line"/>
      <point x="1220" y="0" type="line"/>
      <point x="1220" y="280" type="line"/>
      <point x="60" y="280" type="line"/>
    </contour>
  </outline>
</glyph>
<glyph name="acute" format="2">
  <advance width="390"/>
  <unicode hex="00B4"/>
  <outline>
    <contour>
      <point x="20" y="830" type="line"/>
      <point x="370" y="830" type="line"/>
      <point x="370" y="950" type="line"/>
      <point x="20" y="920" type="line"/>
    </contour>
  </outline>
</glyph>
<glyph name="I.narrow" format="2">
  <advance width="540"/>
  <outline>
    <contour>
      <point x="60" y="0" type="line"/>
      <point x="480" y="0" type="line"/>
      <point x="480" y="800" type="line"/>
      <point x="60" y="800" type="line"/>
    </contour>
  </outline>
</glyph>
<glyph name="IJ" format="2">
  <advance width="1327"/>
  <outline>
    <contour>
      <point x="522" y="460" type="line"/>
      <point x="522" y="800" type="line"/>
      <point x="90" y="800" type="line"/>
      <point x="90" y="460" type="line"/>
    </contour>
    <contour>
      <point x="663" y="-10" type="curve" smooth="yes"/>
      <point x="1016" y="-10"/>
      <point x="1237" y="134"/>
      <point x="1237" y="433" type="curve" smooth="yes"/>
      <point x="1237" y="800" type="line"/>
      <point x="806" y="800" type="line"/>
      <point x="806" y="433" type="line" smooth="yes"/>
      <point x="806" y="328"/>
      <point x="752" y="284"/>
      <point x="664" y="284" type="curve" smooth="yes"/>
      <point x="576.0" y="284.0"/>
      <point x="522" y="310.0740740740741"/>
      <point x="522" y="372" type="curve" smooth="yes"/>
      <point x="522" y="410" type="line"/>
      <point x="90" y="410" type="line"/>
      <point x="90" y="372" type="line" smooth="yes"/>
      <point x="90" y="114.48258706467664"/>
      <point x="310.0" y="-10.0"/>
    </contour>
  </outline>
</glyph>
<glyph name="J.narrow" format="2">
  <advance width="889"/>
  <outline>
    <contour>
      <point x="225" y="-10" type="curve" smooth="yes"/>
      <point x="596" y="-10"/>
      <point x="829" y="134"/>
      <point x="829" y="433" type="curve" smooth="yes"/>
      <point x="829" y="800" type="line"/>
      <point x="398" y="800" type="line"/>
      <point x="398" y="463" type="line" smooth="yes"/>
      <point x="398" y="337"/>
      <point x="332" y="284"/>
      <point x="226" y="284" type="curve" smooth="yes"/>
      <point x="205" y="284"/>
      <point x="156" y="285"/>
      <point x="104" y="293" type="curve"/>
      <point x="60" y="1" type="line"/>
      <point x="112" y="-7"/>
      <point x="167" y="-10"/>
    </contour>
  </outline>
</glyph>
<glyph name="S.closed" format="2">
  <advance width="1313"/>
  <outline>
    <contour>
      <point x="1283" y="253" type="curve" smooth="yes"/>
      <point x="1283" y="432"/>
      <point x="1188" y="485"/>
      <point x="847" y="491" type="curve" smooth="yes"/>
      <point x="515" y="497" type="line" smooth="yes"/>
      <point x="429" y="498"/>
      <point x="428" y="502"/>
      <point x="428" y="512" type="curve" smooth="yes"/>
      <point x="428" y="523"/>
      <point x="442" y="527"/>
      <point x="515" y="527" type="curve" smooth="yes"/>
      <point x="762" y="527" type="line" smooth="yes"/>
      <point x="879.0" y="527.0"/>
      <point x="911" y="520"/>
      <point x="911" y="472" type="curve"/>
      <point x="1247" y="472" type="line"/>
      <point x="1247" y="723"/>
      <point x="1104.0" y="810.0"/>
      <point x="750" y="810" type="curve" smooth="yes"/>
      <point x="595" y="810" type="line" smooth="yes"/>
      <point x="198" y="810"/>
      <point x="36" y="729"/>
      <point x="36" y="529" type="curve" smooth="yes"/>
      <point x="36" y="364"/>
      <point x="184" y="303"/>
      <point x="504" y="299" type="curve" smooth="yes"/>
      <point x="831" y="295" type="line" smooth="yes"/>
      <point x="901" y="294"/>
      <point x="918" y="289"/>
      <point x="918" y="276" type="curve" smooth="yes"/>
      <point x="918" y="268"/>
      <point x="903" y="264"/>
      <point x="831" y="264" type="curve" smooth="yes"/>
      <point x="487" y="264" type="line" smooth="yes"/>
      <point x="420" y="264"/>
      <point x="376" y="289"/>
      <point x="376" y="336" type="curve"/>
      <point x="30" y="336" type="line"/>
      <point x="30" y="44"/>
      <point x="203" y="-10"/>
      <point x="475" y="-10" type="curve" smooth="yes"/>
      <point x="856" y="-10" type="line" smooth="yes"/>
      <point x="1195" y="-10"/>
      <point x="1283" y="92"/>
    </contour>
  </outline>
</glyph>
<glyph name="arrowdown" format="2">
  <advance width="832"/>
  <outline>
    <contour>
      <point x="216" y="51" type="line"/>
      <point x="618" y="51" type="line"/>
      <point x="624" y="926" type="line"/>
      <point x="209" y="926" type="line"/>
    </contour>
    <contour>
      <point x="10" y="226" type="line"/>
      <point x="418" y="-200" type="line"/>
      <point x="822" y="225" type="line"/>
    </contour>
  </outline>
</glyph>
<glyph name="arrowleft" format="2">
  <advance width="1418"/>
  <outline>
    <contour>
      <point x="256" y="600" type="line"/>
      <point x="256" y="198" type="line"/>
      <point x="1408" y="192" type="line"/>
      <point x="1408" y="607" type="line"/>
    </contour>
    <contour>
      <point x="431" y="806" type="line"/>
      <point x="5" y="398" type="line"/>
      <point x="430" y="-6" type="line"/>
    </contour>
  </outline>
</glyph>
<glyph name="arrowright" format="2">
  <advance width="1418"/>
  <outline>
    <contour>
      <point x="1162" y="200" type="line"/>
      <point x="1162" y="602" type="line"/>
      <point x="10" y="608" type="line"/>
      <point x="10" y="193" type="line"/>
    </contour>
    <contour>
      <point x="987" y="-6" type="line"/>
      <point x="1413" y="401" type="line"/>
      <point x="988" y="806" type="line"/>
    </contour>
  </outline>
</glyph>
<glyph name="arrowup" format="2">
  <advance width="832"/>
  <outline>
    <contour>
      <point x="616" y="675" type="line"/>
      <point x="214" y="675" type="line"/>
      <point x="208" y="-200" type="line"/>
      <point x="623" y="-200" type="line"/>
    </contour>
    <contour>
      <point x="822" y="500" type="line"/>
      <point x="414" y="926" type="line"/>
      <point x="10" y="501" type="line"/>
    </contour>
  </outline>
</glyph>
